<?xml version="1.0" encoding="UTF-8"?>
<svg version="1.1" xmlns="http://www.w3.org/2000/svg" width="32" height="32">
<path d="M0 0 C1.1653125 -0.00128906 2.330625 -0.00257812 3.53125 -0.00390625 C4.7584375 -0.00003906 5.985625 0.00382813 7.25 0.0078125 C9.09078125 0.00201172 9.09078125 0.00201172 10.96875 -0.00390625 C12.71671875 -0.00197266 12.71671875 -0.00197266 14.5 0 C15.57765625 0.00112793 16.6553125 0.00225586 17.765625 0.00341797 C20.25 0.1328125 20.25 0.1328125 21.25 1.1328125 C21.33651611 2.54851373 21.35704904 3.9684075 21.34765625 5.38671875 C21.34443359 6.24072266 21.34121094 7.09472656 21.33789062 7.97460938 C21.32951172 8.87244141 21.32113281 9.77027344 21.3125 10.6953125 C21.30798828 11.59701172 21.30347656 12.49871094 21.29882812 13.42773438 C21.28700225 15.66282564 21.2705222 17.89778687 21.25 20.1328125 C18.94 20.7928125 16.63 21.4528125 14.25 22.1328125 C14.58 24.1128125 14.91 26.0928125 15.25 28.1328125 C9.97 28.1328125 4.69 28.1328125 -0.75 28.1328125 C-0.42 26.1528125 -0.09 24.1728125 0.25 22.1328125 C-2.06 21.4728125 -4.37 20.8128125 -6.75 20.1328125 C-6.77888514 16.98699827 -6.79675923 13.84121781 -6.8125 10.6953125 C-6.82087891 9.79748047 -6.82925781 8.89964844 -6.83789062 7.97460938 C-6.84111328 7.12060547 -6.84433594 6.26660156 -6.84765625 5.38671875 C-6.85551147 4.20057983 -6.85551147 4.20057983 -6.86352539 2.99047852 C-6.61389554 -1.09432472 -3.37143569 0.00352872 0 0 Z M-4.75 4.1328125 C-4.99360073 7.26095764 -4.99360073 7.26095764 -4.875 10.7578125 C-4.85695313 11.94632813 -4.83890625 13.13484375 -4.8203125 14.359375 C-4.79710937 15.27460938 -4.77390625 16.18984375 -4.75 17.1328125 C-4.42 17.1328125 -4.09 17.1328125 -3.75 17.1328125 C-3.75 13.1728125 -3.75 9.2128125 -3.75 5.1328125 C2.19 5.1328125 8.13 5.1328125 14.25 5.1328125 C14.25 4.4728125 14.25 3.8128125 14.25 3.1328125 C15.24 2.8028125 16.23 2.4728125 17.25 2.1328125 C13.95840684 2.07490897 10.66694397 2.03924989 7.375 2.0078125 C6.43785156 1.99105469 5.50070312 1.97429688 4.53515625 1.95703125 C3.63925781 1.95058594 2.74335938 1.94414063 1.8203125 1.9375 C0.99289551 1.92702637 0.16547852 1.91655273 -0.68701172 1.90576172 C-2.97398157 1.93978993 -2.97398157 1.93978993 -4.75 4.1328125 Z M18.25 4.1328125 C18.146875 4.7721875 18.04375 5.4115625 17.9375 6.0703125 C17.710625 6.7509375 17.48375 7.4315625 17.25 8.1328125 C16.26 8.4628125 15.27 8.7928125 14.25 9.1328125 C14.25 12.1028125 14.25 15.0728125 14.25 18.1328125 C12.93 18.1328125 11.61 18.1328125 10.25 18.1328125 C10.25 17.4728125 10.25 16.8128125 10.25 16.1328125 C9.59 16.1328125 8.93 16.1328125 8.25 16.1328125 C8.25 14.1528125 8.25 12.1728125 8.25 10.1328125 C8.91 10.1328125 9.57 10.1328125 10.25 10.1328125 C10.25 9.4728125 10.25 8.8128125 10.25 8.1328125 C11.57 7.8028125 12.89 7.4728125 14.25 7.1328125 C8.97 7.1328125 3.69 7.1328125 -1.75 7.1328125 C-2.08 11.0928125 -2.41 15.0528125 -2.75 19.1328125 C0.54188269 19.18658191 3.83289426 19.22637356 7.125 19.2578125 C8.53072266 19.28294922 8.53072266 19.28294922 9.96484375 19.30859375 C10.86074219 19.31503906 11.75664062 19.32148438 12.6796875 19.328125 C13.92081299 19.34383545 13.92081299 19.34383545 15.18701172 19.35986328 C17.47398157 19.32583507 17.47398157 19.32583507 19.25 17.1328125 C19.49360073 14.00466736 19.49360073 14.00466736 19.375 10.5078125 C19.35695313 9.31929687 19.33890625 8.13078125 19.3203125 6.90625 C19.29710938 5.99101563 19.27390625 5.07578125 19.25 4.1328125 C18.92 4.1328125 18.59 4.1328125 18.25 4.1328125 Z M6.25 21.1328125 C6.25 22.4528125 6.25 23.7728125 6.25 25.1328125 C5.26 24.8028125 4.27 24.4728125 3.25 24.1328125 C3.25 24.7928125 3.25 25.4528125 3.25 26.1328125 C5.89 26.1328125 8.53 26.1328125 11.25 26.1328125 C10.92 25.4728125 10.59 24.8128125 10.25 24.1328125 C9.26 24.6278125 9.26 24.6278125 8.25 25.1328125 C8.25 23.8128125 8.25 22.4928125 8.25 21.1328125 C7.59 21.1328125 6.93 21.1328125 6.25 21.1328125 Z " fill="#000000" transform="translate(8.75,1.8671875)"/>
<path d="M0 0 C1.32 0 2.64 0 4 0 C4 0.66 4 1.32 4 2 C4.66 2 5.32 2 6 2 C6 3.98 6 5.96 6 8 C5.34 8 4.68 8 4 8 C4 8.66 4 9.32 4 10 C2.68 10 1.36 10 0 10 C-1.125 3.375 -1.125 3.375 0 0 Z " fill="#000000" transform="translate(9,10)"/>
</svg>
